<svg xmlns="http://www.w3.org/2000/svg" viewBox="0 0 512 512" style="height: 512px; width: 512px;"><defs><filter id="shadow-1" height="300%" width="300%" x="-100%" y="-100%"><feFlood flood-color="rgba(0, 0, 0, 0.95)" result="flood"></feFlood><feComposite in="flood" in2="SourceGraphic" operator="atop" result="composite"></feComposite><feGaussianBlur in="composite" stdDeviation="15" result="blur"></feGaussianBlur><feOffset dx="0" dy="0" result="offset"></feOffset><feComposite in="SourceGraphic" in2="offset" operator="over"></feComposite></filter><radialGradient id="gradient-0"><stop offset="0%" stop-color="#8a00ff" stop-opacity="1"></stop><stop offset="100%" stop-color="#000000" stop-opacity="1"></stop></radialGradient></defs><path d="M0 0h512v512H0z" fill="url(#pattern)"></path><svg><defs><linearGradient id="a" x1="240" y1="16" x2="240" y2="496" gradientUnits="userSpaceOnUse"><stop offset="0" stop-color="#7d787a"></stop><stop offset="1" stop-color="#423e44"></stop></linearGradient></defs><path fill="url(#a)" fill-rule="evenodd" d="M0 0h512v512H0z"></path><path d="M8 0l30.63 37.93 259.87-9.84 178.4 11.95L504 0H204.7l-10.2 8.779L159.4 0z" overflow="visible" fill="#fff" fill-opacity=".269" fill-rule="evenodd"></path><path d="M2.809 511.6l42.841-40.7L184 468.5l27.4 26.6 10.5-23.8 250.1 7 6.7 18.3 29.3 15.7z" overflow="visible" fill-opacity=".24" fill-rule="evenodd"></path><path d="M511.7 16.15l-39.1 50.39-2 324.26 10.1 19.9-7.3 53.5 20.9 9.1 18 23.8L512 215l-15.5-28.8 15.4-11.4z" overflow="visible" fill-opacity=".19" fill-rule="evenodd"></path><path d="M0 15.18L35.12 61.1l-8.61 93.8 10.19 13.9-5.13 97.4-14.85 18.9 12.62 23.3 7.5 83.9v57.4L-.743 496.5z" overflow="visible" fill="#fff" fill-opacity=".099" fill-rule="evenodd"></path><path d="M51.56 56.62L43.16 141l10.74 22.4-8.99 103.7-10.46 17.5 7.05 21.8 10.61 116.8 21.9 32.6 109.29.5 34.2-12.4 6.5 12.5 235.3 2.3 6.9-33.9-13.7-12.6 6.2-20.4-6-331.94-150-14.62-29.5 1.34-1.4 25.57-60.4-22.77z" overflow="visible" fill="#797677" fill-opacity=".434" fill-rule="evenodd"></path></svg><g class="" transform="translate(0,0)" style="touch-action: none;"><path d="M256 117c-65.2 0-124.2 11.6-166.13 29.7-20.95 9.1-37.57 19.8-48.57 31.1S25 200.4 25 212c0 11.6 5.3 22.9 16.3 34.2 11 11.3 27.62 22 48.57 31.1C131.8 295.4 190.8 307 256 307c65.2 0 124.2-11.6 166.1-29.7 21-9.1 37.6-19.8 48.6-31.1S487 223.6 487 212c0-11.6-5.3-22.9-16.3-34.2-11-11.3-27.6-22-48.6-31.1C380.2 128.6 321.2 117 256 117zM25 255.1v50.2c0 6.3 5.3 17.6 16.3 28.9 11 11.3 27.62 22 48.57 31.1C131.8 383.4 190.8 395 256 395c65.2 0 124.2-11.6 166.1-29.7 21-9.1 37.6-19.8 48.6-31.1s16.3-22.6 16.3-28.9v-50.2c-1.1 1.3-2.2 2.5-3.4 3.7-13.3 13.6-31.8 25.3-54.3 35-45 19.5-106 31.2-173.3 31.2-67.3 0-128.3-11.7-173.28-31.2-22.49-9.7-41.01-21.4-54.3-35-1.19-1.2-2.32-2.5-3.42-3.7z" fill="#7ed321" fill-opacity="1" stroke="#000000" stroke-opacity="1" stroke-width="4" filter="url(#shadow-1)"></path></g></svg>