<svg xmlns="http://www.w3.org/2000/svg" viewBox="0 0 512 512" style="height: 512px; width: 512px;"><defs><filter id="shadow-1" height="300%" width="300%" x="-100%" y="-100%"><feFlood flood-color="rgba(0, 0, 0, 0.95)" result="flood"></feFlood><feComposite in="flood" in2="SourceGraphic" operator="atop" result="composite"></feComposite><feGaussianBlur in="composite" stdDeviation="15" result="blur"></feGaussianBlur><feOffset dx="0" dy="0" result="offset"></feOffset><feComposite in="SourceGraphic" in2="offset" operator="over"></feComposite></filter><radialGradient id="gradient-0"><stop offset="0%" stop-color="#8a00ff" stop-opacity="1"></stop><stop offset="100%" stop-color="#000000" stop-opacity="1"></stop></radialGradient></defs><path d="M0 0h512v512H0z" fill="url(#pattern)"></path><svg><defs><linearGradient id="a" x1="240" y1="16" x2="240" y2="496" gradientUnits="userSpaceOnUse"><stop offset="0" stop-color="#7d787a"></stop><stop offset="1" stop-color="#423e44"></stop></linearGradient></defs><path fill="url(#a)" d="M0 0h512v512H0z" fill-rule="evenodd"></path><path d="M8 0l30.63 37.93 259.87-9.84 178.4 11.95L504 0H204.7l-10.2 8.779L159.4 0z" overflow="visible" fill="#fff" fill-rule="evenodd" fill-opacity=".269"></path><path d="M2.809 511.6l42.841-40.7L184 468.5l27.4 26.6 10.5-23.8 250.1 7 6.7 18.3 29.3 15.7z" overflow="visible" fill-rule="evenodd" fill-opacity=".24"></path><path d="M511.7 16.15l-39.1 50.39-2 324.26 10.1 19.9-7.3 53.5 20.9 9.1 18 23.8L512 215l-15.5-28.8 15.4-11.4z" overflow="visible" fill-rule="evenodd" fill-opacity=".19"></path><path d="M0 15.18L35.12 61.1l-8.61 93.8 10.19 13.9-5.13 97.4-14.85 18.9 12.62 23.3 7.5 83.9v57.4L-.743 496.5z" overflow="visible" fill="#fff" fill-rule="evenodd" fill-opacity=".099"></path><path d="M51.56 56.62L43.16 141l10.74 22.4-8.99 103.7-10.46 17.5 7.05 21.8 10.61 116.8 21.9 32.6 109.29.5 34.2-12.4 6.5 12.5 235.3 2.3 6.9-33.9-13.7-12.6 6.2-20.4-6-331.94-150-14.62-29.5 1.34-1.4 25.57-60.4-22.77z" overflow="visible" fill="#797677" fill-rule="evenodd" fill-opacity=".434"></path></svg><g class="" transform="translate(0,0)" style="touch-action: none;"><path d="M319.61 20.654c13.145 33.114 13.144 33.115-5.46 63.5 33.114-13.145 33.116-13.146 63.5 5.457-13.145-33.114-13.146-33.113 5.457-63.498-33.114 13.146-33.113 13.145-63.498-5.459zM113.024 38.021c-11.808 21.04-11.808 21.04-35.724 24.217 21.04 11.809 21.04 11.808 24.217 35.725 11.808-21.04 11.808-21.04 35.724-24.217-21.04-11.808-21.04-11.808-24.217-35.725zm76.55 56.184c-.952 50.588-.95 50.588-41.991 80.18 50.587.95 50.588.95 80.18 41.99.95-50.588.95-50.588 41.99-80.18-50.588-.95-50.588-.95-80.18-41.99zm191.177 55.885c-.046 24.127-.048 24.125-19.377 38.564 24.127.047 24.127.046 38.566 19.375.047-24.126.046-24.125 19.375-38.564-24.126-.047-24.125-.046-38.564-19.375zm-184.086 83.88c-1.191.024-2.36.07-3.492.134-18.591 1.064-41.868 8.416-77.445 22.556L76.012 433.582c78.487-20.734 132.97-21.909 170.99-4.615V247.71c-18.076-8.813-31.79-13.399-46.707-13.737a91.166 91.166 0 0 0-3.629-.002zm122.686 11.42c-2.916-.026-5.81.011-8.514.098-12.81.417-27.638 2.215-45.84 4.522V427.145c43.565-7.825 106.85-4.2 171.244 7.566l-39.78-177.197c-35.904-8.37-56.589-11.91-77.11-12.123zm2.289 16.95c18.889.204 36.852 2.768 53.707 5.02l4.437 16.523c-23.78-3.75-65.966-4.906-92.467-.98l-.636-17.805c11.959-2.154 23.625-2.88 34.959-2.758zm-250.483 4.658l-10.617 46.004h24.094l10.326-46.004H71.158zm345.881 0l39.742 177.031 2.239 9.973 22.591-.152-40.855-186.852h-23.717zm-78.857 57.82c16.993.026 33.67.791 49.146 2.223l3.524 17.174c-32.645-3.08-72.58-2.889-102.995 0l-.709-17.174c16.733-1.533 34.04-2.248 51.034-2.223zm-281.793 6.18l-6.924 30.004h24.394l6.735-30.004H56.389zm274.418 27.244c4.656.021 9.487.085 14.716.203l2.555 17.498c-19.97-.471-47.115.56-59.728 1.05l-.7-17.985c16.803-.493 29.189-.828 43.157-.766zm41.476.447c8.268.042 16.697.334 24.121.069l2.58 17.74c-8.653-.312-24.87-.83-32.064-.502l-2.807-17.234a257.25 257.25 0 0 1 8.17-.073zm-326.97 20.309l-17.985 77.928 25.035-.17 17.455-77.758H45.313zm303.164 11.848c19.608-.01 38.66.774 56.449 2.572l2.996 20.787c-34.305-4.244-85.755-7.697-119.1-3.244l-.14-17.922c20.02-1.379 40.186-2.183 59.795-2.193zm-166.606 44.05c-30.112.09-67.916 6.25-115.408 19.76l-7.22 2.053 187.759-1.27v-6.347c-16.236-9.206-37.42-14.278-65.13-14.196zm134.41 6.174c-19.63.067-37.112 1.439-51.283 4.182v10.064l177.594-1.203c-44.322-8.634-89.137-13.17-126.31-13.043zM26 475v18h460v-18H26z" fill="#d0021b" fill-opacity="1" stroke="#000000" stroke-opacity="1" stroke-width="4" filter="url(#shadow-1)"></path></g></svg>