<?xml version="1.0" encoding="utf-8"?>
<!-- Generator: Adobe Illustrator 24.0.3, SVG Export Plug-In . SVG Version: 6.00 Build 0)  -->
<svg version="1.1" id="Layer_1" xmlns="http://www.w3.org/2000/svg" xmlns:xlink="http://www.w3.org/1999/xlink" x="0px" y="0px"
	 viewBox="0 0 652.4 55.4" style="enable-background:new 0 0 652.4 55.4;" xml:space="preserve">
<g>
	<path fill="#333" d="M0,46.1C0-17,0,63,0,0c217.5,0,434.9,0,652.4,0c0,62.5,0-18,0,44.5c-0.9,0.8-1.8,1.8-3.1,1.1c-0.9-0.5-1.5-1.4-2.4-0.2
		c-1.9-0.6-3.2,0.9-4.7,1.7c-0.5-0.6-0.9-1-1.4-1.6c-1-1.2-2.1-2.4-4-1.8c-0.3,0.1-0.8-0.1-1.1-0.4c-1.2-1.1-2.2-2.6-3.5-3.5
		c-1-0.7-2.6-1.3-3.5-0.9c-1.2,0.6-2.1,0.6-3.3,0.1c-0.9-0.3-2-0.4-2.9-0.1c-1.1,0.4-2,1.3-2.8,1.8c-0.8-0.2-1.7-0.3-2.4-0.7
		c-1.5-0.9-3-2-4.4-3c-1.1-0.8-2.1-1.1-3.2-0.1c-0.8,0.8-1.5,0.8-2.5,0.3c-0.5-0.3-1.6-0.1-2,0.3c-0.9,0.8-1.5,0.9-2.3-0.2
		c-1-1.4-2.1-1.4-3.2-0.1c-0.2,0.2-0.6,0.4-1.1,0.6c-0.5-1.7-1.4-2.3-3.1-1.6c-0.7,0.3-1.6-0.1-2.4-0.1c-1.1,0-2.2-0.1-2.9,1.3
		c-0.5,1-1.3,1.4-2.4,0.5c-0.4-0.3-1.5-0.6-1.8-0.4c-1.7,1.4-3.8,0.7-5.6,1c-0.9,0.2-1.7,0.4-1.9,1.6c-0.2,1.1-0.7,2.3-2.3,1.9
		c-0.4-0.1-0.9,0.3-1.4,0.4c-0.2,0.1-0.5,0.1-0.7,0c-1.5-0.8-3-0.5-4.1,0.5c-1.1,1-1.8,0.8-2.5-0.3c-0.2-0.3-0.2-0.6-0.5-1.1
		c-1.5,2.4-3.3,1.9-5.1,1.8c-0.8-0.1-1.6,0.3-2.4,0.4c-1.6,0.2-3.6,1.1-4.9,0.5c-2.3-1.1-3.8,0-5.6,0.8c-1.2,0.5-2.4,0.9-3.7,1.3
		c-0.7,0.2-1.4,0.1-2.5,0.2c-0.2-0.3-0.6-1-1.1-1.5c-0.5-0.5-1.2-0.8-1.8-1.1c-0.6-0.2-1.2-0.3-1.8-0.5c-0.6-0.2-1.1-0.4-1.7-0.7
		c-1.6-0.7-3.5,0-5.1-1c-1.8-1.2-2.8-3.3-5-4.2c-1.6-0.7-3.2-0.8-4.4,0.4c-0.3,0.3-0.8,0.5-1.2,0.5c-0.3,0-0.5-0.6-0.6-1
		c-0.1-0.8-0.1-1.5-0.2-2.5c-0.9,0.1-1.6,0.1-2.4,0.2c-0.9,0.2-1.8,0.8-2.7,1c-1.4,0.3-2.3,0.9-2.6,2.3c-0.4,1.7-1.6,2.2-3.2,2.3
		c-0.7,0-1.5,0.3-1.9,0.7c-0.7,0.9-1.1,0.4-1.4-0.2c-0.2-0.4-0.1-1-0.3-1.3c-0.3-0.5-0.8-1-1.3-1.3c-0.2-0.1-0.8,0.3-1,0.7
		c-1.1,1.5-2.1,1.9-4,1.4c-0.5-0.1-1,0.1-1.5,0.2c-0.4-0.6-0.9-1.2-1.4-1.8c-1.8,1-2.5-0.4-3.4-1.6c-0.4-0.6-1.1-0.9-1.8-1.5
		c-0.9,2.2-1,2.2-2.7,0.9c-0.2-0.1-0.5-0.2-0.7-0.3c-1.9-0.3-3.7-0.4-5.6-0.8c-1.6-0.3-3.4-0.4-4.8-1.6c-0.4-0.4-2.3,0.4-3,1.1
		c-1.1,1.1-1.7,2.7-2.6,4c-0.9,1.2-2.3,1-3-0.3c-0.3-0.5-0.5-1.2-0.9-1.6c-0.5-0.3-1.6-0.6-1.8-0.4c-0.8,1-1.5,2.3-2.1,3.4
		c-0.5,1-1,2.1-1.5,3.3c-0.6-0.8-0.9-1.4-1.4-1.8c-0.3-0.2-0.9-0.2-1.3,0c-1.4,0.7-2.7,1.5-4.1,2.2c-2,1-4.5,1-6.2,2.7
		c-0.6,0.6-1,1.2-1.6,1.9c-0.4-0.3-0.7-0.5-0.9-0.8c-1-2.3-2.9-3.8-4.6-5.4c-0.9-0.9-2.1-0.9-2.9-0.2c-1.1,0.8-1.9,1.9-2.9,2.9
		c-1,1-2.2,1.1-3.3,0.4c-0.4-0.3-0.9-0.4-1.1-0.5c-0.8,1.1-1.4,2.1-2.2,3.1c-0.5-0.6-1-1-1.2-1.4c-0.2-0.4,0-1,0-1.8
		c-1,0.9-1.7,1.4-2.3,2c-1.1,1.1-2.4,0.9-3-0.5c-0.2-0.6-0.3-1.3-0.7-1.7c-0.8-0.7-2.1-2-2.5-1.8c-1.6,0.8-2.5-0.1-3.3-1
		c-1.5-1.4-2.3-1.3-3,0.7c-0.1,0.3-0.1,0.5-0.1,1.1c-0.7-0.6-1-1.1-1.5-1.4c-1.7-0.9-3.6-1.2-4.9-2.8c-0.3-0.4-1.4-0.2-2.2,0
		c-1.2,0.2-2.4,0.3-3.5,0.8c-1.1,0.6-2,1.6-2.6,2.1c-1.1,0.1-1.8-0.1-2.4,0.1c-1.6,0.6-3.1,0.7-4.4-0.7c-0.7-0.7-1.4-1.8-2.1-1.9
		c-1.9-0.3-3.9-0.3-5.8,0c-1.1,0.2-1.9,1.4-3.2,1.7c-0.4,0.1-1,0.9-0.9,1.3c0.3,1.8-1,2.9-1.9,4.4c-0.3-0.6-0.7-1.1-0.7-1.5
		c0-1.3-0.7-1.3-1.6-1c-0.4,0.1-1,0.2-1.3,0c-1-0.8-1.9-0.5-2.6,0.3c-1.5,1.7-3.9,2.6-4.7,4.9c0,0.1-0.3,0.2-0.5,0.3
		c-0.9-1.6-0.6-3.2-0.1-4.8c0.6-1.9,0.2-2.6-1.5-3.6c-0.4-0.2-0.7-0.6-1-0.9c-0.4-0.5-0.8-1.2-1.3-1.4c-0.9-0.4-2-0.6-3-0.5
		c-0.2,0-0.4,1.1-0.7,1.7c-0.6,1.2-1.1,2.5-2,3.4c-0.9,0.9-2.2,1.4-3.4,2c-1-1.7-1.9-3.5-3.1-5.1c-1-1.4-2.5-2.4-3.6-3.7
		c-0.8-0.9-1.4-1.3-2.4-0.5c-0.3,0.2-0.6,0.4-1.1,0.6c-0.7-1.4-1.4-2.8-2-4c-1,0.1-2,0.6-2.7,0.3c-1.4-0.6-2.4,0-3.6,0.8
		c-0.2-0.2-0.3-0.4-0.5-0.6c-1.7-1.6-1.8-1.6-3.6-0.1c-0.6,0.5-1.2,1.1-1.6,1.5c-1.2-0.1-2.4-0.2-3.5-0.3c-0.3,0-0.7-0.1-0.8-0.2
		c-1.3-1.4-2.5-1.2-3.3,0.5c-0.3,0.6-0.8,1-1.2,1.5c-0.3-0.7-0.3-1.1-0.3-1.6c0-0.5,0.1-0.9,0-1.4c0-1.1-0.9-1.8-1.9-1.5
		c-0.8,0.3-1.5,0.8-2.2,1.2c-0.4-0.3-0.7-0.6-1.1-0.9c-1.5,1.3-2.9,2.6-4.5,4c-0.4-0.4-0.9-0.9-1.2-1.5c-0.4-0.9-0.9-1.2-1.8-0.9
		c-1,0.4-2,1.3-2.9,1.2c-1.8-0.3-3.2,0.6-4.8,0.8c-1.1,0.2-1.6-0.1-2.2-0.9c-0.6-0.9-1.3-1.7-2-2.7c-1.5,2.1-1.9,2-3.3,0.1
		c-0.1-0.1-0.1-0.3-0.3-0.4c-0.9-0.7-1.9-1-2.8-0.2c-1.2,1-2.3,2.1-3.6,3.3c-0.5-1.4-1.7-1.6-3-1.6c-1.1,0-2.2,1.2-2.7,3.1
		c-0.6-1-1-1.9-1.6-2.8c-0.3,0.2-0.5,0.3-0.6,0.5c-0.6,1.1-1.2,1.2-2.1,0.3c-1.5-1.5-3.7-1.3-5.6-1.7c-0.5-0.1-1.2,0.5-1.8,0.9
		c-0.4,0.3-0.8,1-1.1,1c-1.3-0.3-2.4,0.3-3.6,0.5c-1.6,0.3-2.5,2.3-4.3,1.5c-0.7,1.1-1.4,0.2-2.2,0c-0.3-0.1-0.7-0.1-1.3-0.2
		c-0.6-1.2-2.7-2.6-3.7-2c-0.6,0.4-0.9,1.4-1.3,2.1c-0.5,0.2-1.2,0.5-1.8,0.8c-0.5,0.2-1,0.6-1.5,0.6c-1.3,0-3.1,0.2-3.7-0.5
		c-1.9-2.2-3.2-1.3-4.6,0.3c-0.7,0.8-1.9,0.6-2.7,1c-1.6,0.7-3,1.7-4.4,2.7c-1,0.6-1.6,0.9-2.1-0.5c-0.5-1.4-1.1-1.5-2.4-0.7
		c-0.6,0.3-1.5,0.7-2,0.6c-1.5-0.5-2.9-1.4-4.3-2.1c-1.6,1.4-3.5,2.3-5.8,1.3c-0.5,0.3-0.9,0.7-1.4,0.8c-1.7,0.3-3.5,0.6-5.2,0.7
		c-0.8,0-1.7-0.4-2.5-0.6c-0.8-0.2-1.8-0.7-2.5-0.5c-1.2,0.4-2.2,1.2-3.5,0.7c-0.1,0-0.4,0.2-0.6,0.4c-0.6,0.8-1.3,1.6-1.6,2.6
		c-0.4,1.1-0.8,0.4-1.3,0.3c-0.8-0.2-2-0.6-2.4-0.2c-1.1,1-1.8,2.3-2.7,3.5c-0.4-0.1-0.9-0.2-1.4-0.3c-0.6-0.1-1.2,0.1-1.8-0.1
		c-1.4-0.5-2.6-1.6-4-1.6c-2-0.1-4,0.4-5.9,1c-1.1,0.3-2,1.3-3.1,2.1c-1.5-1.2-3.2-1.4-5.1-0.2c-1,0.6-2.3,0.8-3.4,1.1
		c-0.5,0.1-1,0.3-1.2,0.3c-1.3-0.9-2.5-1.9-3.8-2.8c-0.2-0.2-0.8,0-1.2,0.2c-1.9,1-2.2,1-3.6-0.7c-1.5-1.9-3.2-2.4-5.5-2.1
		c-1.2,0.2-2.4,0.8-3.7,0.1c-0.3-0.1-1.1,0.1-1.2,0.4c-1,1.7-3.4,2.6-3.2,5.1c0,0.3-0.3,0.6-0.6,1.2c-0.5-0.4-0.9-0.8-1.3-1.1
		c-0.2-0.2-0.5-0.5-0.6-0.4c-1,0.8-1.5-0.3-1.8-0.7c-1.2-1.4-2.5-2.3-4.3-2.7c-2.4-0.6-2.4-0.8-3.4,1.5c-0.4-0.1-0.8-0.1-1.2-0.3
		c-1.1-0.7-2-0.2-2.9,0.3c-1.8,1.1-3.6,2.2-5.5,3.1c-0.3,0.2-1.1-0.3-1.6-0.5c-0.6-0.3-1.1-0.8-1.8-1c-1.8-0.4-3.7-0.6-5.5-0.9
		c-0.3-0.1-0.8-0.3-1-0.1c-1.5,0.9-2.8,1.8-4.3,2.7c-0.7,0.4-1.6,0.6-2.3,1.1c-0.8,0.6-2.1,0.6-2.7-0.2c-1.1-1.4-2.9-1.8-4.5-1
		c-2-1.7-2.3-1.7-4.4,0c-0.3,0.3-1,0.7-1.1,0.7c-1.4-1.2-2.9-0.7-4.3-0.1c-0.1,0.1-0.3,0-0.5,0c-1.3-0.5-2.3,0.1-2.9,0.9
		c-0.6-0.5-1.1-0.9-1.6-1.3c-0.7-0.5-1.5-1.2-2.3-1.3c-0.9-0.1-1.9,0.2-2.7,0.7c-1.2,0.6-2.8,0.7-3.9-0.1c-0.4-0.3-1-0.4-1.5-0.4
		c-0.3,0-0.7,0.3-1,0.2c-2.3-0.9-4.8-0.9-7.2-0.9c-1.5,0-3.1-1-4.4,0.7c-0.2,0.3-1.6,0.2-1.9-0.1c-1.5-1.8-3-0.4-3.8,0.4
		c-1.3,1.3-2.4,1-3.7,0.3c-0.9-0.5-1.8-0.7-2.7,0.2c-1.1,1.1-2.3,2.2-3.5,3.3c-1.3-2.3-3.7-2-5.6-1.8c-1.9,0.2-3-0.8-4.3-1.6
		c-0.4-0.2-0.8-0.7-1.2-0.7c-1.2,0.1-2.4,0.3-3.6,0.5c-1.5,0.3-3,0.6-4.5,0.8c-0.3,0.1-0.7-0.2-1-0.2c-1.2-0.3-2.3-0.9-3.5-0.9
		c-1.4,0-2.4-0.3-3.6-1c-0.9-0.5-2.3-1.3-3.1-1c-2,0.7-3.4,0-4.9-1c-1.3-0.9-2.7-1.7-4.1-2.4c-0.8-0.4-1.7-0.5-2.1-0.6
		C2.4,45.7,1.2,45.9,0,46.1z"/>
</g>
</svg>
